# xmcd
#
# Track frame offsets: 
#        150
#        24332
#        54161
#        74433
#        90841
#        111054
#        128001
#        147820
#        167269
#        184785
#        207713
#        228830
#        250602
#        273858
#        295132
#        308093
#        330123
#        350882
#
# Disc length: 4954 seconds
#
# Revision: 0
# Processed by: cddbd v1.5.2PL0 Copyright (c) Steve Scherf et al.
# Submitted via: ExactAudioCopyFreeDBPlugin 1.0
#
DISCID=ee135812
DTITLE=Pepe Ahlqvist - One Day Less, One Day More Anniversary Collecti
DTITLE=on Cd-2
DYEAR=2016
DGENRE=Blues
TTITLE0=Kaikessa Soi Blues
TTITLE1=Lottovoittaja
TTITLE2=Don't Leave Me Again
TTITLE3=Super Blue
TTITLE4=Rattle On, Rap On
TTITLE5=Let's Fake Love
TTITLE6=Don't Stare At Me
TTITLE7=A Cicada Of Chicago
TTITLE8=Everyday I Have The Blues
TTITLE9=The Blues Is All Right
TTITLE10=Suistoon
TTITLE11=Soitan Sen Pois
TTITLE12=Good Blues
TTITLE13=Woman, Why?
TTITLE14=Aamun Blues
TTITLE15=Aina Ei Voi Saada Mitä Haluaa
TTITLE16=Mun Poikani Mun
TTITLE17=Samaa Luuta Ja Nahkaa
EXTD=
EXTT0=
EXTT1=
EXTT2=
EXTT3=
EXTT4=
EXTT5=
EXTT6=
EXTT7=
EXTT8=
EXTT9=
EXTT10=
EXTT11=
EXTT12=
EXTT13=
EXTT14=
EXTT15=
EXTT16=
EXTT17=
PLAYORDER=
